inDegrees=no
num_controls=7
num_derivatives=13
num_iterations=150
num_multipliers=7
num_parameters=0
num_slacks=7
num_states=26
objective=0.515121
objective_accelerations=0.039099
objective_balance=0.001924
objective_effort=0.043483
objective_height=0.418960
objective_ligament=0.011655
solver_duration=1927.995216
status=Solve_Succeeded
success=true
DataType=double
version=3
OpenSimVersion=4.5
endheader
time	/jointset/ground_pelvis/pelvis_tilt/value	/jointset/ground_pelvis/pelvis_tx/value	/jointset/ground_pelvis/pelvis_ty/value	/jointset/hip_l/hip_flexion_l/value	/jointset/hip_l/hip_adduction_l/value	/jointset/hip_l/hip_rotation_l/value	/jointset/back/lumbar_extension/value	/jointset/patellofemoral_l/patellar_flexion_l/value	/jointset/knee_l/knee_flexion_l/value	/jointset/knee_l/knee_adduction_l/value	/jointset/knee_l/knee_rotation_l/value	/jointset/ankle_l/ankle_angle_l/value	/jointset/subtalar_l/subtalar_angle_l/value	/jointset/ground_pelvis/pelvis_tilt/speed	/jointset/ground_pelvis/pelvis_tx/speed	/jointset/ground_pelvis/pelvis_ty/speed	/jointset/hip_l/hip_flexion_l/speed	/jointset/hip_l/hip_adduction_l/speed	/jointset/hip_l/hip_rotation_l/speed	/jointset/back/lumbar_extension/speed	/jointset/patellofemoral_l/patellar_flexion_l/speed	/jointset/knee_l/knee_flexion_l/speed	/jointset/knee_l/knee_adduction_l/speed	/jointset/knee_l/knee_rotation_l/speed	/jointset/ankle_l/ankle_angle_l/speed	/jointset/subtalar_l/subtalar_angle_l/speed	/forceset/tau_hip_flexion_l	/forceset/tau_hip_adduction_l	/forceset/tau_hip_rotation_l	/forceset/tau_knee_flexion_l	/forceset/tau_ankle_angle_l	/forceset/tau_subtalar_angle_l	/forceset/tau_lumbar_extension	lambda_cid13_p0	lambda_cid13_p1	lambda_cid13_p2	lambda_cid13_p3	lambda_cid13_p4	lambda_cid13_p5	lambda_cid14_p0	/jointset/ground_pelvis/pelvis_tilt/accel	/jointset/ground_pelvis/pelvis_tx/accel	/jointset/ground_pelvis/pelvis_ty/accel	/jointset/hip_l/hip_flexion_l/accel	/jointset/hip_l/hip_adduction_l/accel	/jointset/hip_l/hip_rotation_l/accel	/jointset/back/lumbar_extension/accel	/jointset/patellofemoral_l/patellar_flexion_l/accel	/jointset/knee_l/knee_flexion_l/accel	/jointset/knee_l/knee_adduction_l/accel	/jointset/knee_l/knee_rotation_l/accel	/jointset/ankle_l/ankle_angle_l/accel	/jointset/subtalar_l/subtalar_angle_l/accel	gamma_cid13_p0	gamma_cid13_p1	gamma_cid13_p2	gamma_cid13_p3	gamma_cid13_p4	gamma_cid13_p5	gamma_cid14_p0
1	-0.1560544998797365	-0.0898381253239568	0.729100006096559	1.246980281482816	-0.3280846697407213	-0.004688111319775544	-0.9599310067292646	1.156912448352679	1.156912448352427	-0.08039772239666838	-0.1745319760274068	0.1444067799167989	0.01234857527458562	0.1086865360527424	0.02658118993602352	0.06622372307980388	-0.2925450100246534	0.0007919316772640463	-0.06341384488967326	-0.001676523135607895	-0.1609351775845069	-0.1609351775844839	0.002255733354917243	-1.489414964707888e-05	0.01503329358381819	0.007368918123179264	-0.3963926753189956	0.01754156255421672	-0.005069931982947325	-0.29341236398739	0.102977271299011	0.04273211097780621	0.4343877836297994	-16.98286116913067	-15.59588760224066	2.044562943500435	5.065294076980156	-785.5968866456399	-70.46348359009588	-1.868423175985575	1.029589437176697	0.1865405798285244	1.237964730858393	-4.608243624224249	-0.01315261447229788	-1.395538253934274	0.3170136877160854	-4.101453456789397	-4.101453456789624	-0.2081460492226045	-0.01041659085236365	-0.7923393631853641	-0.2822300881282322	-8.47469978517806e-09	-9.295109878932727e-09	3.543705833642983e-08	2.637025852326288e-09	-2.073682474889402e-08	5.024879225553879e-08	-1.026717166124298e-08
1.01	-0.1549166525754779	-0.08956294410518299	0.7298239143127587	1.243825422670535	-0.3280768056728587	-0.00539218124147358	-0.9599310794461536	1.155098432116658	1.155098432116726	-0.08038442833624804	-0.1745320133813461	0.1445176173911591	0.01240889259801697	0.118878332864368	0.02846147687508871	0.07854628161792918	-0.3384059804281863	0.0007872199539879048	-0.07739363620724217	0.001692025688509267	-0.2018582192632431	-0.2018582192632281	0.0004025506816280605	5.956426710610622e-06	0.00712910009302589	0.004699717620860382	-0.3956426930965931	0.01774497333063704	-0.005104934954684698	-0.2931310071947573	0.1028027037471032	0.0427955079250727	0.4340859363202623	-17.00858638144379	-15.62764957485029	2.059601813992495	4.950559036213455	-785.2491165121912	-70.50829574151575	-1.907212154779985	1.013284547326794	0.1897377338312777	1.227650361250035	-4.571910054836128	0.006819059324702317	-1.398236367379546	0.3512823691362015	-4.086249266171889	-4.086249266172972	-0.1739909514163238	0.008127267949422035	-0.7902256387782404	-0.2584922093972363	-1.363079485556098e-08	-1.688446678474288e-08	4.814024749848593e-08	7.572266514891786e-09	-2.630729187231162e-08	5.639219192803232e-08	-1.348644675776183e-08
1.02	-0.153677025354269	-0.0892687670204414	0.7306706979035317	1.240212576892934	-0.3280687988201134	-0.006235856435689534	-0.9598965652969148	1.152875481515299	1.152875481515688	-0.0803896834175679	-0.1745318839523117	0.1445492596712608	0.01244267248080244	0.1290425194428454	0.03038036312958594	0.0907987979944696	-0.3841424030884523	0.0008204886539106282	-0.09133489939326506	0.005240850087692745	-0.2427220506522259	-0.2427220506522185	-0.001454094993030915	1.846244585157916e-05	-0.0008057452678494495	0.002061429994000616	-0.3948927108741964	0.01794838410705683	-0.005139937926430618	-0.2928496504021249	0.1026281361951964	0.04285890487233903	0.4337840890107196	-17.0450541348041	-15.65723934393055	2.073961716992969	4.872837658759118	-785.0459682471067	-70.54503164743628	-1.955288305278363	1.024067390547066	0.1942604429149379	1.223956298541424	-4.583334075570855	-0.005556529832526029	-1.387832627625074	0.3530688027293278	-4.089611398838718	-4.089611398838848	-0.208838649496564	-0.01208550229570989	-0.7984697372019669	-0.2760475130364087	-1.835527559070385e-08	-2.544500419948904e-08	5.978059042284567e-08	1.146536701559188e-08	-3.151565289447923e-08	6.164418127877661e-08	-1.671145114877016e-08
1.03	-0.1523363383040597	-0.08895500137551025	0.7316396290899919	1.236143262506928	-0.3280602529609589	-0.00721866819243552	-0.9598239055991781	1.150244255055237	1.150244255055594	-0.0804135704899217	-0.1745316411806338	0.1445016547638376	0.01245033693863396	0.1390462808317954	0.03240014617625157	0.1029732619065818	-0.4296738102139099	0.0008955580041941671	-0.1052166690349185	0.009496698477794356	-0.2835073771622702	-0.2835073771622778	-0.003327195198511696	2.830279575919124e-05	-0.008694916389924624	-0.0005133369254291587	-0.3954199198027233	0.01830082522656775	-0.005183327966459911	-0.2921335040093088	0.1024446776213552	0.04306165809299001	0.4350250339093055	-17.11223618069713	-15.75104750906814	2.108924232249834	4.410171023608036	-785.634740611264	-70.62242190138097	-2.012948302555448	0.981237272142219	0.2099473765921926	1.212057453292832	-4.531047205050838	0.01506758563246994	-1.386750076415731	0.4926842098633725	-4.070609640545876	-4.070609640548035	-0.1771383561704787	0.007267054054116194	-0.7810952389260297	-0.2459137779080224	-2.30753520979361e-08	-3.401545161942844e-08	7.141008797743299e-08	1.534783343300762e-08	-3.672031895643001e-08	6.688707460582958e-08	-1.993651400196716e-08
1.04	-0.1508970722881464	-0.0886202158719025	0.7327298781187226	1.231620033414862	-0.3280507506246671	-0.008339977834394068	-0.9597025191469979	1.147205652057383	1.147205652057709	-0.08045630709435013	-0.1745313503553725	0.1443757672573503	0.01243270922796885	0.1487583125836749	0.03458433486491124	0.1150623664485615	-0.4749253443000733	0.001011784081424597	-0.119034476435782	0.01498620097640755	-0.3241973582106577	-0.3241973582106798	-0.005224001407858074	2.807316247137795e-05	-0.01646226508062922	-0.002997003705329431	-0.3959471287312543	0.01865326634607836	-0.005226718006496805	-0.2914173576164928	0.1022612190475145	0.04326441131364096	0.4362659788078876	-17.1903165458891	-15.84273542696261	2.14330657462159	3.983060180865321	-786.3715782287541	-70.69246647957183	-2.080523252091352	0.9657214631329314	0.2271415713137526	1.206884424514943	-4.527359467712031	0.002674815556848445	-1.375040179467069	0.599799624431642	-4.070542306507324	-4.07054230650739	-0.2135798502696855	-0.01409949893480263	-0.7741052509278462	-0.2578274851305106	-2.55745016822152e-08	-4.23100684920638e-08	8.020940352748566e-08	1.554077259297097e-08	-4.029663143453149e-08	6.842861003421564e-08	-2.241991400970279e-08
1.05	-0.1493619895523869	-0.08826280533821763	0.7339405364816993	1.226645696843036	-0.3280398713376756	-0.009599061267695958	-0.9595206060262048	1.143760707407609	1.1437607074075	-0.08051818969579706	-0.1745311121848903	0.1441727334261231	0.01239068141171257	0.1582230271629397	0.03692123498318121	0.1270493552127171	-0.5198918860431821	0.00117414847477638	-0.132766954999196	0.0215511075053623	-0.3647674065028348	-0.3647674065028511	-0.007155399564291127	1.945626401695248e-05	-0.02413192916136469	-0.005392382540820959	-0.3957387571523526	0.01891388472930091	-0.005277517062348505	-0.2906062868759888	0.1021256446451787	0.04354410175984558	0.4367850088212039	-17.2106169620279	-15.98269170261555	2.190795730912821	3.580689020662527	-786.4327270822173	-70.85745351736205	-2.158414452481116	0.9315630927607165	0.2404868232299505	1.191604662238749	-4.473792296120859	0.02452523710508791	-1.370086489547117	0.7080388155903312	-4.046606303507051	-4.046606303506122	-0.1833663204565421	0.005761889204767575	-0.7615142709547961	-0.2279686281550676	-2.800424730015204e-08	-5.059606566009592e-08	8.892027588989664e-08	1.561841402613896e-08	-4.382205786313767e-08	6.985447802826839e-08	-2.488013705351777e-08
1.06	-0.1477333163433475	-0.0878813212851208	0.735270464444292	1.221223196700077	-0.3280270668095746	-0.01099501644558552	-0.9592684033104296	1.139910788232326	1.139910788231783	-0.08059947558323396	-0.1745309592484895	0.1438933794972267	0.01232518469802206	0.1674764072397025	0.03939903874730566	0.138916286371787	-0.5645580585267133	0.001396832303357721	-0.1464088253533519	0.0290441199728345	-0.4051922633123777	-0.4051922633123875	-0.009104658605781069	1.102634578365328e-05	-0.0317262846144361	-0.007690783192176249	-0.3955303855734534	0.01917450311252369	-0.005328316118206077	-0.289795216135485	0.1019900702428434	0.04382379220605073	0.4373040388345177	-17.24180926165864	-16.12064236414457	2.237852639670831	3.211714312702896	-786.6430891240324	-71.01661301288053	-2.247037585351019	0.9234545626325092	0.255322300484652	1.182872903497797	-4.467285615796498	0.0147387026027578	-1.356918537615445	0.7854208121351282	-4.04150400998045	-4.041504009980414	-0.2171520272810647	-0.0140621028905819	-0.7590435253950322	-0.2384318483032635	-3.042024750496831e-08	-5.895157352485532e-08	9.501714601387511e-08	1.622129815472809e-08	-4.730182019790499e-08	7.018662988402183e-08	-2.691098083080295e-08
